<svg width="34" height="46" viewBox="0 0 34 46" fill="none" xmlns="http://www.w3.org/2000/svg">
<path d="M18.7471 44.4188C31.612 25.7684 34 23.8543 34 17C34 7.61114 26.3889 0 17 0C7.61109 0 -5.05447e-05 7.61114 -5.05447e-05 17C-5.05447e-05 23.8543 2.38792 25.7684 15.2529 44.4188C16.0971 45.6383 17.9029 45.6383 18.7471 44.4188ZM17 24.0834C13.0879 24.0834 9.91663 20.9121 9.91663 17C9.91663 13.088 13.0879 9.91668 17 9.91668C20.912 9.91668 24.0833 13.088 24.0833 17C24.0833 20.9121 20.912 24.0834 17 24.0834Z" fill="white"/>
</svg>
