<svg width="24" height="24" viewBox="0 0 24 24" fill="none" xmlns="http://www.w3.org/2000/svg">
<path d="M12.66 3.49402C12.283 4.13102 12.116 5.60802 12.158 6.65602L12.153 6.66002C12.189 7.60602 12.318 8.47602 12.525 9.27502C9.429 10.042 6.059 12.07 4.173 14.029C3.291 12.839 2.941 11.861 2.837 11.121C2.706 10.185 2.929 9.32702 3.483 8.63902C4.35 7.56202 5.581 7.48602 6.848 7.69902C6.823 7.89902 6.849 8.09002 6.929 8.20902C7.264 8.70302 9.064 8.87702 10.139 8.39802C9.346 7.28602 7.739 6.74402 7.295 6.96102C7.14669 7.04032 7.02887 7.16658 6.96 7.32002C6.522 7.24202 6.087 7.18302 5.77 7.18602C4.653 7.19402 3.799 7.58402 3.16 8.37902C2.532 9.15902 2.278 10.126 2.426 11.179C2.566 12.175 3.059 13.234 3.886 14.333C3.74867 14.4804 3.616 14.6257 3.488 14.769C1.473 17.023 0 19.44 0 19.842V20.049H2.658L2.612 19.803C2.462 19.01 2.762 18.018 3.375 17.277C3.761 16.812 4.399 16.281 5.402 16.036C6.293 16.906 7.429 17.83 8.693 18.721H10.669V18.513C10.6683 18.3969 10.6379 18.283 10.5806 18.1819C10.5234 18.0809 10.4412 17.9963 10.342 17.936C10.03 17.732 9.548 17.704 9.105 17.855C8.68367 17.3837 8.44733 16.758 8.396 15.978C12.683 16.358 16.784 18.088 21.411 20.506H23.957L23.99 20.339C24.038 20.102 23.908 19.783 23.644 19.488C23.188 18.978 22.295 18.736 21.549 18.754C21.035 18.142 18.207 15.163 18.042 14.989C19.1186 14.2332 20.0285 13.2641 20.715 12.142H22.103V11.844H20.89C20.9676 11.7061 21.042 11.5664 21.113 11.425H22.102V11.126H21.257C21.885 9.76702 22.232 8.20802 22.199 6.50102L22.202 6.50302C22.2 6.03502 22.055 4.05802 21.787 3.51402C21.061 3.79002 19.74 4.68402 19.441 5.59802C17.9593 5.38783 16.454 5.40672 14.978 5.65402C14.741 4.67002 13.555 3.91802 12.66 3.49402ZM12.824 4.07102C13.035 5.21902 13.417 5.94002 14.244 6.29402C14.978 6.08402 15.824 5.95402 16.692 5.90602L17.409 7.47702L17.869 5.89202C18.745 5.92102 19.605 6.03402 20.354 6.24102C21.116 5.68702 21.411 4.84102 21.572 4.10302C21.774 4.96302 21.75 6.82002 21.752 6.82002C21.7657 7.48629 21.7128 8.15227 21.594 8.80802L20.77 9.15802L21.496 9.26802C21.4398 9.50864 21.3738 9.74684 21.298 9.98202L20.595 10.187L21.155 10.388C21.0603 10.6414 20.9557 10.8874 20.841 11.126H19.681V11.425H20.689C20.6134 11.5668 20.5341 11.7065 20.451 11.844H19.681V12.142H20.264C19.5205 13.2754 18.5196 14.217 17.343 14.89C16.009 14.226 15.002 13.256 14.264 12.142H14.71V11.844H14.074C13.9916 11.7065 13.9129 11.5668 13.838 11.425H14.71V11.126H13.684C13.5091 10.7708 13.3555 10.4055 13.224 10.032L13.746 9.88502L13.087 9.62202C13.0203 9.40735 12.9603 9.19202 12.907 8.97602L13.922 8.90702L12.762 8.29202C12.48 6.72902 12.537 5.21202 12.824 4.07102ZM15.77 7.04102C14.88 7.04102 14.53 7.95002 14.515 7.98902L14.767 8.08302C14.779 8.05002 15.069 7.31002 15.77 7.31002C15.924 7.31002 16.032 7.37202 16.11 7.50502C16.292 7.81902 16.262 8.43802 16.11 9.08502H14.883V9.35402H16.042C15.9247 9.7802 15.7583 10.1913 15.546 10.579L15.482 10.691L17.019 11.658L16.154 12.228L16.302 12.452L17.269 11.815L18.312 12.496L18.455 12.268L17.488 11.67L19.006 10.684V10.683C18.688 10.213 18.586 9.81102 18.72 9.35402H18.828L19.995 9.35302L19.997 9.08502H18.822C19.038 8.57502 19.342 8.11702 20.424 8.11702V7.84702C19.425 7.84702 18.828 8.24402 18.541 9.08502H16.387C16.537 8.41302 16.564 7.75202 16.341 7.37002C16.2857 7.26778 16.2032 7.18284 16.1026 7.1246C16.002 7.06636 15.8872 7.03708 15.771 7.04002L15.77 7.04102ZM16.32 9.35402H18.446C18.351 9.65802 18.389 10.117 18.624 10.511H15.887C16.053 10.177 16.207 9.77102 16.32 9.35402ZM12.637 9.67502C12.793 10.189 12.9803 10.6727 13.199 11.126H12.289V11.425H13.349C13.4243 11.567 13.502 11.7067 13.582 11.844H12.29V12.142H13.768C14.678 13.558 15.908 14.641 17.302 15.46C17.4565 15.3708 17.6085 15.2774 17.758 15.18L18.12 15.57L17.51 16.508L18.55 16.034L19.156 16.686L18.137 17.462L19.54 17.099L21.445 19.149L21.605 19.135C22.612 19.049 23.185 19.595 23.335 19.765C23.447 19.889 23.514 20.002 23.55 20.091H21.514C16.844 17.654 12.743 15.936 8.387 15.561C8.39633 14.9544 8.50433 14.2684 8.711 13.503L8.311 13.395C8.09833 14.181 7.98567 14.8924 7.973 15.529C7.51967 15.499 7.06267 15.4837 6.602 15.483C6.212 15.4844 5.85467 15.5177 5.53 15.583C5.14502 15.1997 4.78115 14.7958 4.44 14.373C4.986 13.803 5.63 13.25 6.333 12.73L7.3 13.398L6.984 12.27C7.282 12.07 7.58667 11.8767 7.898 11.69L9.332 12.42L8.659 11.258C8.857 11.1514 9.05633 11.048 9.257 10.948L11.264 12.294L10.604 10.342C11.2653 10.0715 11.944 9.84863 12.637 9.67502ZM16.129 10.78H18.349L17.265 11.495L16.129 10.78ZM4.153 14.675C4.42633 15.0124 4.72967 15.3527 5.063 15.696C4.27771 15.9247 3.57876 16.383 3.056 17.012C2.427 17.772 2.094 18.774 2.17 19.634H0.495C0.832 18.906 2.172 16.801 4.153 14.675Z" fill="#FFCD29"/>
</svg>
