<svg width="24" height="24" viewBox="0 0 24 24" fill="none" xmlns="http://www.w3.org/2000/svg">
<path d="M21.01 4.62398L13.853 0.503982C13.285 0.173571 12.6396 -0.000488281 11.9825 -0.000488281C11.3254 -0.000488281 10.68 0.173571 10.112 0.503982L8.24202 1.58898V12.009C8.24122 13.0031 8.6347 13.957 9.33617 14.6615C10.0377 15.366 10.9899 15.7635 11.984 15.767C12.6419 15.7694 13.2881 15.5935 13.854 15.258C14.4242 14.929 14.8975 14.4553 15.226 13.8849C15.5546 13.3144 15.7267 12.6673 15.725 12.009C15.7258 11.015 15.3325 10.0612 14.6312 9.3568C13.93 8.65235 12.978 8.25469 11.984 8.25098V5.90398C12.624 5.90398 13.28 6.06798 13.854 6.41198L15.889 7.59398C16.4594 7.92304 16.9328 8.39686 17.2613 8.96753C17.5898 9.53821 17.7619 10.1855 17.76 10.844V13.19C17.7598 13.8478 17.5869 14.494 17.2588 15.0641C16.9307 15.6343 16.4587 16.1083 15.89 16.439L13.854 17.621C13.28 17.949 12.624 18.129 11.984 18.129C11.344 18.129 10.687 17.965 10.113 17.62L8.07802 16.44C7.50784 16.1108 7.03466 15.6369 6.70631 15.0663C6.37796 14.4956 6.20607 13.8484 6.20802 13.19V2.75398L2.97402 4.62398C2.40384 4.95317 1.93066 5.42704 1.60231 5.99771C1.27396 6.56837 1.10207 7.2156 1.10402 7.87398V16.128C1.10402 17.458 1.80902 18.705 2.97402 19.378L10.129 23.496C10.6971 23.8266 11.3427 24.0007 12 24.0007C12.6573 24.0007 13.3029 23.8266 13.871 23.496L21.026 19.377C21.5961 19.0479 22.0691 18.5742 22.3975 18.0037C22.7258 17.4332 22.8978 16.7862 22.896 16.128V7.87298C22.8883 7.21456 22.7104 6.56933 22.3798 5.99988C22.0492 5.43044 21.577 4.95613 21.009 4.62298M9.68502 9.05398C9.47946 9.21335 9.2923 9.39514 9.12702 9.59598V6.96998L9.68502 6.64198V9.05398ZM11.113 8.36498C10.916 8.41498 10.735 8.46398 10.555 8.54498V6.18398C10.735 6.10198 10.932 6.05198 11.113 6.00398V8.36498Z" fill="#FFCD29"/>
</svg>
