<svg width="16" height="16" viewBox="0 0 16 16" fill="none" xmlns="http://www.w3.org/2000/svg">
<path d="M8.13562 3.29009C7.91866 3.28651 7.70698 3.35711 7.53562 3.49021C7.36304 3.62347 7.23895 3.80965 7.18237 4.02021L4.86237 12.7098H6.49937C6.71267 12.7121 6.92035 12.6415 7.08812 12.5097C7.25857 12.3795 7.38246 12.1978 7.44137 11.9916L9.16049 5.59796H10.4792C10.6752 5.59641 10.8686 5.64289 11.0425 5.73334C11.2083 5.81804 11.3532 5.93873 11.4664 6.08659C11.5778 6.23507 11.6561 6.40569 11.696 6.58696C11.7399 6.77818 11.7345 6.97742 11.6802 7.16596C11.6117 7.43233 11.4565 7.66832 11.239 7.83672C11.0216 8.00513 10.7543 8.09638 10.4792 8.09609H9.79624C9.57917 8.09266 9.36741 8.16329 9.19587 8.29634C9.02544 8.42649 8.90155 8.60815 8.84262 8.81434L8.41862 10.404H10.55C11.1186 10.4052 11.6786 10.2655 12.1799 9.99735C12.6813 9.7292 13.1084 9.34095 13.423 8.86734C13.6357 8.54796 13.7948 8.19599 13.894 7.82534L13.9411 7.64871C14.09 7.12449 14.1062 6.5715 13.9882 6.03946C13.8785 5.53206 13.6572 5.05542 13.3406 4.64405C13.0239 4.23268 12.6197 3.89688 12.1572 3.66096C11.6752 3.41191 11.1396 3.28458 10.5971 3.29009H8.13562ZM13.6336 3.30659V3.43571H14.0301V4.55821H14.1757V3.43571H14.572V3.30659H13.6336ZM14.7605 3.30659V4.55821H14.8947V3.76121C14.8947 3.6398 14.8908 3.53513 14.883 3.44721H14.8896L15.3142 4.55846H15.4317L15.8617 3.45034H15.8685C15.8609 3.55066 15.8568 3.65123 15.8564 3.75184V4.55834H16V3.30659H15.7825L15.3829 4.33884H15.3759L14.9794 3.30659H14.7605ZM3.51999 5.60971C3.13465 5.60813 2.75182 5.67182 2.38774 5.79809C2.03499 5.91972 1.70378 6.09659 1.40649 6.32209C0.800221 6.78721 0.363825 7.43888 0.164617 8.17659L0.117492 8.35321C-0.0235607 8.87877 -0.0378269 9.43031 0.0758666 9.96246C0.18317 10.4689 0.402443 10.945 0.717617 11.3557C1.03555 11.7669 1.44046 12.1026 1.90337 12.339C2.38536 12.588 2.92098 12.7153 3.46349 12.7098H4.28774L4.75874 10.9672C4.77865 10.9019 4.7819 10.8327 4.76819 10.7659C4.75447 10.699 4.72424 10.6366 4.68024 10.5845C4.64006 10.5305 4.5876 10.4868 4.52719 10.4571C4.46678 10.4274 4.40017 10.4125 4.33287 10.4137H3.57924C3.38336 10.4154 3.18983 10.3711 3.01424 10.2842C2.84775 10.2031 2.70255 10.0841 2.59024 9.93684C2.47939 9.78822 2.40161 9.61761 2.36212 9.43646C2.31913 9.23783 2.32522 9.03171 2.37987 8.83596C2.45529 8.56951 2.61415 8.33425 2.83312 8.16471C3.04693 8.00099 3.3096 7.91395 3.57887 7.91759H4.81562C5.03273 7.92105 5.24454 7.85042 5.41612 7.71734C5.58864 7.58415 5.71273 7.39806 5.76937 7.18759L6.18112 5.60971H3.51999Z" fill="#FF6C2C"/>
</svg>
