<svg width="16" height="17" viewBox="0 0 16 17" fill="none" xmlns="http://www.w3.org/2000/svg">
<path d="M9.53116 0.03125C9.50579 0.05225 9.48104 0.089375 9.45404 0.09125L8.34516 0.15675L7.02529 0.2505L6.22841 0.313L4.79091 0.437L4.31441 0.46825L3.20554 0.53225C2.78604 0.56 2.36554 0.581 1.94804 0.627875C1.14404 0.71825 0.467786 1.20562 0.312411 2.11912C0.297661 2.20412 0.282661 2.29037 0.282661 2.376C0.280863 5.34308 0.28053 8.31017 0.281661 11.2773C0.281271 11.6741 0.402985 12.0615 0.630286 12.3868C1.01704 12.9434 1.43691 13.4765 1.84616 14.0176C2.17916 14.458 2.50816 14.9014 2.85441 15.3315C3.10441 15.6428 3.42954 15.8569 3.81729 15.9692C3.84479 15.977 3.86804 15.9966 3.89879 16.021C4.54041 16.0312 5.17616 16.0312 5.81241 16.0312C5.83779 16.0103 5.86266 15.9725 5.88954 15.9712L6.72554 15.937L8.34316 15.8433L9.32804 15.7817L10.93 15.6875L11.9305 15.625C12.4594 15.5932 12.9892 15.5717 13.517 15.5279C13.8554 15.5 14.2 15.4731 14.5263 15.3866C15.1449 15.2226 15.538 14.8022 15.7153 14.1879C15.7543 14.0532 15.7783 13.9091 15.7787 13.7691L15.7792 3.72263C15.7785 3.40338 15.6708 3.10413 15.4305 2.89313C15.1073 2.609 14.7618 2.3475 14.411 2.09663C13.6567 1.5555 12.9018 1.01412 12.1288 0.500375C11.8622 0.32275 11.5413 0.227 11.2455 0.09325C11.2161 0.0797771 11.1885 0.0625506 11.1635 0.042L9.53116 0.03125ZM10.5117 0.964125C10.9724 0.9685 11.3809 1.11887 11.7684 1.40087L14.5214 3.34087C14.7499 3.5005 14.8485 3.70025 14.848 3.98587L14.8437 13.4688V13.5938C14.8324 14.1729 14.5537 14.4849 13.9765 14.5312L12.0287 14.6567L8.11666 14.893L4.64054 15.1001C4.12741 15.1343 3.72354 14.9741 3.44179 14.5332C3.38366 14.4414 3.30954 14.3594 3.24304 14.273L1.69916 12.2823C1.37441 11.8673 1.20841 11.416 1.21129 10.8735L1.21966 2.59325C1.21907 2.48935 1.22773 2.38561 1.24554 2.28325C1.31879 1.88225 1.57216 1.63225 1.98091 1.59475L4.00429 1.437L7.22804 1.19925L10.3108 0.97125C10.3776 0.965888 10.4447 0.96351 10.5117 0.964125ZM10.3992 1.76312L9.13791 1.85113L3.14416 2.28662C2.96291 2.29975 2.78079 2.31287 2.60204 2.34525C2.54254 2.356 2.46654 2.4165 2.44804 2.47125C2.43429 2.51 2.49466 2.5875 2.53904 2.63C2.62116 2.7085 2.71579 2.77437 2.80529 2.84525C3.01779 3.01275 3.24391 3.16563 3.43879 3.35063C3.80841 3.70163 4.23854 3.78275 4.73129 3.74712L8.61066 3.50388L12.7869 3.25338L12.9469 3.22412C12.8702 3.1445 12.8259 3.0835 12.7679 3.0405C12.5632 2.88939 12.3565 2.74096 12.1479 2.59525C11.8307 2.37227 11.5127 2.1506 11.1937 1.93025C10.9383 1.79188 10.6725 1.74812 10.3992 1.76312ZM13.425 4.19037L10.5413 4.3565L6.48904 4.59375L4.46316 4.71537C4.20491 4.732 4.08816 4.84325 4.04916 5.09575C4.03993 5.16271 4.03583 5.23029 4.03691 5.29787L4.03654 8.5V12.7016L4.03754 13.4829C4.04429 13.8325 4.21566 14.0069 4.56579 14.0269L4.83091 14.0234L7.76116 13.8506L13.3568 13.5308C13.7055 13.5113 13.8668 13.3582 13.8993 13.0127L13.9037 12.8252L13.9042 4.76562C13.9042 4.71875 13.9058 4.67188 13.9028 4.625C13.8819 4.30463 13.744 4.17337 13.4253 4.19037M12.5132 5.69975C12.5874 6.04725 12.5059 6.17725 12.1807 6.24263C11.859 6.30763 11.8589 6.30763 11.8589 6.63275L11.8628 12.1952C11.8633 12.3219 11.8248 12.3891 11.7119 12.4257C11.4952 12.4957 11.2828 12.5855 11.0615 12.6327C10.708 12.709 10.3935 12.6153 10.1803 12.309C9.88088 11.8783 9.589 11.4424 9.30479 11.0015L7.37104 7.98238L7.30854 7.895V11.9654L8.14991 12.1573C8.11491 12.4185 7.97416 12.5785 7.71291 12.6216L7.10691 12.6714L5.56841 12.7598C5.50054 12.5425 5.58691 12.3725 5.78866 12.313L6.24366 12.1846V6.773L5.57566 6.71588C5.48979 6.41363 5.67729 6.12212 5.98729 6.09375L7.24854 6.0015L7.93416 5.95512C8.03766 5.94387 8.09291 5.97212 8.14891 6.05762L9.75741 8.50825V8.50875C10.1314 9.07655 10.5047 9.64476 10.8774 10.2134V6.44088L10.289 6.37587C10.1705 6.36912 10.1498 6.3145 10.1655 6.21537C10.1977 6.00975 10.3579 5.833 10.5693 5.81787L12.5132 5.69975Z" fill="white"/>
</svg>
