<svg width="41" height="31" viewBox="0 0 41 31" fill="none" xmlns="http://www.w3.org/2000/svg">
<path d="M40.2139 10.1515C40.5261 9.90336 40.9905 10.1355 40.9905 10.5278V26.9C40.9905 29.0216 39.2692 30.7429 37.1476 30.7429H3.84286C1.72128 30.7429 0 29.0216 0 26.9V10.5358C0 10.1355 0.456339 9.91137 0.776577 10.1596C2.56991 11.5526 4.94768 13.3219 13.1138 19.2543C14.803 20.4872 17.6531 23.0812 20.4952 23.0652C23.3534 23.0892 26.2595 20.4392 27.8847 19.2543C36.0508 13.3219 38.4206 11.5446 40.2139 10.1515ZM20.4952 20.4952C22.3526 20.5273 25.0266 18.1575 26.3716 17.1808C36.9955 9.47104 37.8041 8.79854 40.2539 6.87711C40.7183 6.51685 40.9905 5.95643 40.9905 5.36399V3.84286C40.9905 1.72128 39.2692 0 37.1476 0H3.84286C1.72128 0 0 1.72128 0 3.84286V5.36399C0 5.95643 0.272202 6.50884 0.736548 6.87711C3.18637 8.79054 3.99497 9.47104 14.6189 17.1808C15.9639 18.1575 18.6379 20.5273 20.4952 20.4952Z" fill="#FDFDFD"/>
</svg>
