<svg width="56" height="56" viewBox="0 0 56 56" fill="none" xmlns="http://www.w3.org/2000/svg">
<path d="M21 7H28V21H21C19.1435 21 17.363 20.2625 16.0503 18.9497C14.7375 17.637 14 15.8565 14 14C14 12.1435 14.7375 10.363 16.0503 9.05025C17.363 7.7375 19.1435 7 21 7Z" fill="#F4511E"/>
<path d="M35 21H28V7H35C36.8565 7 38.637 7.7375 39.9497 9.05025C41.2625 10.363 42 12.1435 42 14C42 15.8565 41.2625 17.637 39.9497 18.9497C38.637 20.2625 36.8565 21 35 21Z" fill="#FF8A65"/>
<path d="M28 28C28 31.866 31.134 35 35 35C38.866 35 42 31.866 42 28C42 24.134 38.866 21 35 21C31.134 21 28 24.134 28 28Z" fill="#29B6F6"/>
<path d="M21 21H28V35H21C19.1435 35 17.363 34.2625 16.0503 32.9497C14.7375 31.637 14 29.8565 14 28C14 26.1435 14.7375 24.363 16.0503 23.0503C17.363 21.7375 19.1435 21 21 21Z" fill="#7C4DFF"/>
<path d="M21 35H28V42C28 43.8565 27.2625 45.637 25.9497 46.9497C24.637 48.2625 22.8565 49 21 49C19.1435 49 17.363 48.2625 16.0503 46.9497C14.7375 45.637 14 43.8565 14 42C14 40.1435 14.7375 38.363 16.0503 37.0503C17.363 35.7375 19.1435 35 21 35Z" fill="#00E676"/>
</svg>
