<svg width="29" height="29" viewBox="0 0 29 29" fill="none" xmlns="http://www.w3.org/2000/svg">
<path fill-rule="evenodd" clip-rule="evenodd" d="M14.5072 2.41663C11.6247 2.41825 8.84079 3.46588 6.67235 5.36496C4.47396 7.2926 3.02281 9.93144 2.57248 12.8204C2.11219 15.7215 2.67476 18.6924 4.16385 21.2243C5.63157 23.7259 7.94614 25.6196 10.6889 26.5627C11.2979 26.6775 11.5141 26.2933 11.5141 25.9658C11.5141 25.6698 11.5021 24.6947 11.4972 23.6603C8.13806 24.4095 7.42998 22.1983 7.42998 22.1983C7.21252 21.4539 6.73702 20.8113 6.08873 20.3858C4.99277 19.616 6.17331 19.6354 6.17331 19.6354C6.55635 19.6885 6.92248 19.8323 7.24269 20.0535C7.5641 20.2746 7.83115 20.5682 8.02448 20.9114C8.1876 21.2171 8.40873 21.4865 8.67456 21.7028C9.07047 22.0303 9.55723 22.2285 10.0693 22.2709C10.5813 22.3132 11.094 22.1976 11.5383 21.9397C11.5927 21.3113 11.8646 20.7241 12.3056 20.2843C9.62431 19.9713 6.80285 18.9092 6.80285 14.158C6.78417 12.9329 7.22916 11.746 8.04865 10.8351C7.67889 9.76586 7.72024 8.5973 8.16465 7.55688C8.16465 7.55688 9.17844 7.22458 11.4864 8.82563C13.4637 8.27073 15.5555 8.27073 17.5329 8.82563C19.8359 7.22458 20.8437 7.55688 20.8437 7.55688C21.2908 8.59363 21.3343 9.76571 20.9657 10.8351C21.7843 11.7463 22.2285 12.9332 22.2091 14.158C22.2091 18.9176 19.3828 19.964 16.6943 20.2697C16.9844 20.5727 17.2075 20.9334 17.3489 21.3284C17.4902 21.7234 17.5467 22.1437 17.5147 22.562C17.5147 24.2198 17.5002 25.555 17.5002 25.9622C17.5002 26.2909 17.7177 26.6775 18.3304 26.5567C21.0683 25.6096 23.3774 23.7149 24.8409 21.2147C26.3273 18.6848 26.8881 15.717 26.4274 12.8192C25.9767 9.9329 24.527 7.29647 22.3311 5.36979C20.1665 3.4717 17.3873 2.42252 14.5084 2.41663H14.5072Z" fill="white"/>
</svg>
