<svg width="31" height="31" viewBox="0 0 31 31" fill="none" xmlns="http://www.w3.org/2000/svg">
<path d="M15.501 0.265983C6.93765 0.265983 0 7.20945 0 15.767C0 22.6194 4.44103 28.4274 10.5959 30.4764C11.3738 30.6227 11.6548 30.1431 11.6548 29.7285C11.6548 29.3603 11.6461 28.3867 11.6403 27.0943C7.32615 28.0282 6.4174 25.0104 6.4174 25.0104C5.71114 23.2239 4.69195 22.7443 4.69195 22.7443C3.28911 21.7862 4.80336 21.8065 4.80336 21.8065C6.35734 21.9121 7.17501 23.4002 7.17501 23.4002C8.5575 25.7719 10.8022 25.0859 11.6906 24.6868C11.8263 23.6879 12.2303 23.0011 12.6701 22.6184C9.22889 22.2299 5.61038 20.8978 5.61038 14.958C5.61038 13.2616 6.21104 11.8801 7.20408 10.795C7.0326 10.4065 6.5075 8.82736 7.34068 6.6921C7.34068 6.6921 8.63792 6.27842 11.6034 8.28192C12.8445 7.93799 14.1621 7.76652 15.4787 7.7578C16.7963 7.76652 18.1129 7.93896 19.3539 8.28192C22.302 6.27842 23.5983 6.6921 23.5983 6.6921C24.4305 8.82736 23.9054 10.4056 23.7543 10.795C24.7376 11.8801 25.3383 13.2626 25.3383 14.958C25.3383 20.9113 21.7149 22.2241 18.2698 22.6029C18.8085 23.0669 19.3132 24.0212 19.3132 25.4696C19.3132 27.5428 19.2939 29.2131 19.2939 29.7178C19.2939 30.1209 19.5651 30.6053 20.3634 30.4493C26.5638 28.4216 31 22.6087 31 15.766C31 7.20848 24.0623 0.265015 15.499 0.265015L15.501 0.265983Z" fill="white"/>
</svg>
