<svg width="45" height="61" viewBox="0 0 45 61" fill="none" xmlns="http://www.w3.org/2000/svg">
<path d="M14.4881 47.1739C14.4881 47.1739 12.1586 48.5295 16.1482 48.9869C20.9822 49.5391 23.4525 49.46 28.7782 48.4533C28.7782 48.4533 30.1812 49.3305 32.1369 50.0909C20.194 55.2074 5.10886 49.7942 14.4881 47.1739ZM13.028 40.4961C13.028 40.4961 10.4145 42.4308 14.4075 42.8442C19.5714 43.3774 23.6485 43.4209 30.707 42.0623C30.707 42.0623 31.681 43.0519 33.2149 43.5924C18.7783 47.8146 2.69868 43.9247 13.028 40.4961Z" fill="#0074BD"/>
<path d="M25.33 29.1664C28.2743 32.5554 24.5579 35.6023 24.5579 35.6023C24.5579 35.6023 32.0293 31.7461 28.5988 26.915C25.3935 22.4118 22.9364 20.1751 36.2393 12.4598C36.2393 12.4603 15.3574 17.6741 25.33 29.1664Z" fill="#EA2D2E"/>
<path d="M41.1244 52.1139C41.1244 52.1139 42.849 53.536 39.2244 54.635C32.333 56.7227 10.5358 57.3521 4.48204 54.7186C2.30691 53.7715 6.38741 52.4584 7.67118 52.1813C9.00968 51.8916 9.77398 51.9443 9.77398 51.9443C7.35353 50.2403 -5.87021 55.2918 3.05802 56.7407C27.4046 60.6873 47.4387 54.9634 41.1244 52.1139ZM15.6098 33.5758C15.6098 33.5758 4.52358 36.2093 11.6842 37.1666C14.7082 37.5712 20.7336 37.4784 26.3501 37.0073C30.9388 36.6217 35.5437 35.7983 35.5437 35.7983C35.5437 35.7983 33.9271 36.4917 32.7562 37.2902C21.496 40.2521 -0.251338 38.8726 6.01015 35.8447C11.3035 33.2845 15.6098 33.5758 15.6098 33.5758ZM35.4977 44.6918C46.9431 38.746 41.6507 33.0319 37.9568 33.8015C37.0537 33.9897 36.6486 34.1534 36.6486 34.1534C36.6486 34.1534 36.9848 33.6261 37.6259 33.3994C44.9332 30.8313 50.5521 40.9754 35.269 44.9933C35.269 44.9923 35.4444 44.8335 35.4977 44.6918Z" fill="#0074BD"/>
<path d="M28.5984 0C28.5984 0 34.9357 6.34113 22.5862 16.0889C12.6826 23.9107 20.328 28.3694 22.5828 33.4659C16.8012 28.2502 12.5604 23.6581 15.405 19.3845C19.5823 13.1128 31.1547 10.0707 28.5984 0Z" fill="#EA2D2E"/>
<path d="M16.7346 60.8087C27.7182 61.5109 44.5895 60.4177 44.9888 55.2201C44.9888 55.2201 44.221 57.1905 35.9105 58.7538C26.5346 60.5189 14.9685 60.3131 8.11084 59.1809C8.11084 59.1813 9.5158 60.3444 16.7346 60.8087Z" fill="#0074BD"/>
</svg>
