<svg width="26" height="26" viewBox="0 0 26 26" fill="none" xmlns="http://www.w3.org/2000/svg">
<path d="M23.4923 0H1.87291C0.839022 0 0 0.819288 0 1.82816V23.5409C0 24.5512 0.839022 25.3715 1.87291 25.3715H23.4923C24.5268 25.3715 25.3715 24.5512 25.3715 23.5409V1.82816C25.3715 0.819288 24.5268 0 23.4923 0ZM7.52477 21.62H3.75992V9.51255H7.52477V21.62ZM5.64234 7.85706C4.43614 7.85706 3.4611 6.87955 3.4611 5.67441C3.4611 4.47102 4.43614 3.49352 5.64234 3.49352C6.84573 3.49352 7.82323 4.47102 7.82323 5.67441C7.82323 6.87955 6.84573 7.85706 5.64234 7.85706ZM21.6186 21.62H17.8598V15.7324C17.8598 14.3279 17.8323 12.5219 15.9037 12.5219C13.9452 12.5219 13.6467 14.0516 13.6467 15.6306V21.6204H9.88502V9.51255H13.4952V11.1659H13.5466C14.0491 10.2145 15.2768 9.21056 17.1078 9.21056C20.9156 9.21056 21.619 11.7174 21.619 14.9787L21.6186 21.62Z" fill="#E7E7E7"/>
</svg>
