<svg width="28" height="19" viewBox="0 0 28 19" fill="none" xmlns="http://www.w3.org/2000/svg">
<path d="M8.32945 12.5376L9.18039 15.2862C9.37158 15.9103 9.45131 16.3459 9.41937 16.5942C9.88477 15.3534 10.21 14.0012 10.3949 12.5376H11.4181C10.9781 14.9203 10.398 16.6518 9.67761 17.7319C9.11641 18.5642 8.50161 18.9804 7.83212 18.9804C7.65362 18.9804 7.43356 18.9267 7.17243 18.8201V18.2457C7.30002 18.2644 7.44969 18.2743 7.62185 18.2743C7.93412 18.2743 8.18597 18.1882 8.37741 18.0162C8.60672 17.8066 8.72151 17.5711 8.72151 17.3101C8.72151 17.1318 8.63198 16.766 8.45376 16.2127L7.26813 12.5376H8.32945ZM1.81688 10.8483L3.37548 15.5823H3.3851L4.95327 10.8483H6.23448C6.51503 13.196 6.68073 15.3441 6.73159 17.2912H5.65141C5.61334 15.4711 5.5082 13.7595 5.33597 12.1563H5.32656L3.68167 17.2912H2.85906L1.22412 12.1563H1.2145C1.09328 13.6959 1.01679 15.4076 0.985031 17.2912H0C0.0636562 15.0003 0.222961 12.8528 0.477914 10.8483H1.81688Z" fill="#00758F"/>
<path d="M19.2772 10.7527C20.9538 10.7527 21.7921 11.819 21.7921 13.9506C21.7921 15.1089 21.5399 15.9838 21.0362 16.5749C20.9454 16.6829 20.8451 16.7762 20.7394 16.8626L21.9259 17.4466L21.9247 17.4466L21.5035 18.1707L19.9584 17.2733C19.7022 17.3488 19.4206 17.3865 19.1134 17.3865C18.2902 17.3865 17.6753 17.1477 17.2687 16.6706C16.8225 16.1429 16.5995 15.312 16.5995 14.1795C16.5995 13.0278 16.8512 12.1562 17.355 11.5644C17.814 11.023 18.4548 10.7527 19.2772 10.7527ZM14.1431 10.762C14.7423 10.762 15.2872 10.9217 15.778 11.2398L15.5287 11.7927C15.1088 11.615 14.6947 11.5258 14.2864 11.5258C13.9551 11.5258 13.6998 11.6052 13.5219 11.7649C13.3429 11.9232 13.2323 12.1269 13.2323 12.3753C13.2323 12.7569 13.5054 13.0879 14.0096 13.3675C14.1748 13.4574 14.3395 13.5483 14.5035 13.6403L14.5412 13.6614L14.56 13.6719L14.5977 13.693L14.6165 13.7036L14.6541 13.7247C15.0359 13.9389 15.395 14.1434 15.395 14.1434C15.8993 14.4997 16.1506 14.8796 16.1506 15.5053C16.1506 16.0517 15.9495 16.5003 15.5485 16.8512C15.1473 17.2007 14.6082 17.3758 13.9331 17.3758C13.3018 17.3758 12.6899 17.1742 12.0972 16.7743L12.3744 16.2208C12.8845 16.4753 13.3461 16.6025 13.7605 16.6025C14.1493 16.6025 14.4535 16.5161 14.6737 16.3454C14.8933 16.1736 15.025 15.9339 15.025 15.6299C15.025 15.2474 14.7577 14.9203 14.2673 14.646C14.1138 14.5616 13.9608 14.4763 13.8082 14.3903L13.7706 14.3691C13.7016 14.3303 13.6321 14.291 13.564 14.2525L13.5271 14.2316C13.1959 14.0441 12.9097 13.8803 12.9097 13.8803C12.4194 13.5233 12.1736 13.1403 12.1736 12.5092C12.1736 11.9873 12.3569 11.5654 12.723 11.2445C13.09 10.9229 13.5634 10.762 14.1431 10.762ZM23.7624 10.8483V16.4986H25.7988V17.2912H22.7296V10.8483L23.7624 10.8483ZM26.9304 16.5011V16.635H26.7066V17.2905H26.5354V16.635H26.3028V16.5011H26.9304ZM27.3439 16.5011L27.5589 17.0392L27.7563 16.5011H27.999V17.2905H27.8377V16.6897L27.6129 17.2905H27.4966L27.2714 16.6897H27.2628V17.2905H27.1101V16.5011H27.3439ZM19.1718 11.5451C18.1838 11.5451 17.6895 12.3568 17.6895 13.9791C17.6895 14.9085 17.8205 15.5823 18.0819 16.0023C18.3241 16.3911 18.7034 16.585 19.2198 16.585C20.2078 16.585 20.702 15.767 20.702 14.1317C20.702 13.2154 20.571 12.5473 20.3099 12.1271C20.0674 11.7392 19.6883 11.5451 19.1718 11.5451" fill="#F29111"/>
<path d="M16.5822 0.399222C16.9099 -0.40248 18.0559 0.204648 18.5006 0.484694C18.6096 0.55476 18.7346 0.702786 18.8596 0.757499C19.0546 0.765121 19.2494 0.78031 19.4446 0.788422C19.8109 0.874113 20.154 0.944124 20.4427 1.10777C21.7841 1.89418 22.6573 2.69555 23.4609 4.01924C23.6326 4.29961 23.7184 4.60301 23.8587 4.90641C24.0534 5.35866 24.2721 5.83338 24.4981 6.26102C24.5993 6.46376 24.6775 6.6892 24.818 6.86042C24.8729 6.93871 25.0287 6.96179 25.1218 7.00855C25.3793 7.14123 25.6912 7.24194 25.9334 7.39765C26.3856 7.67835 26.8228 8.01283 27.2203 8.35527C27.3684 8.48745 27.4694 8.67457 27.6105 8.81437V8.88493C27.4852 8.9232 27.3604 8.9624 27.2354 8.99381C26.9625 9.0636 26.7207 9.04782 26.4559 9.11766C26.2923 9.16492 26.0891 9.22725 25.9175 9.2431L25.9334 9.25899C26.0343 9.54617 26.5805 9.77972 26.8304 9.95149C27.1338 10.1695 27.4149 10.4338 27.6412 10.7375C27.7194 10.8149 27.7975 10.8854 27.8753 10.9627C27.9296 11.041 27.9449 11.1422 28 11.212V11.2356C27.939 11.2143 27.8952 11.1734 27.8537 11.1307L27.8289 11.105C27.8042 11.0794 27.7792 11.0542 27.7507 11.0335C27.5785 10.9165 27.4076 10.7764 27.2354 10.6676C26.9395 10.4807 26.5962 10.3722 26.2923 10.1845C26.1205 10.0756 25.9567 9.95149 25.7929 9.82682C25.6444 9.71755 25.4809 9.50773 25.3876 9.35203C25.3326 9.26602 25.3251 9.16492 25.2623 9.10269C25.2735 8.99876 25.3692 8.9679 25.4657 8.94253L25.4879 8.9367C25.5212 8.9281 25.5538 8.9195 25.5822 8.90812C25.9877 8.73674 26.4711 8.67457 27.0953 8.69014C27.0717 8.53411 26.6817 8.3397 26.5572 8.24628C26.3073 8.06695 26.0426 7.87983 25.7775 7.71662C25.637 7.63114 25.3949 7.56875 25.2393 7.49891C25.0287 7.41322 24.5606 7.32758 24.4439 7.16437C24.2457 6.90708 24.1032 6.60019 23.965 6.2902L23.9274 6.2056L23.8896 6.12105C23.7262 5.74775 23.5232 5.35855 23.3594 4.97632C23.2738 4.78985 23.2345 4.6262 23.1407 4.44736C22.5716 3.34994 21.7292 2.43113 20.7079 1.78497C20.3723 1.57472 19.9981 1.38014 19.585 1.24791C19.3509 1.17751 19.0699 1.21644 18.8204 1.16243H18.6563C18.5162 1.12313 18.3992 0.975265 18.2899 0.897305C18.0484 0.73409 17.8066 0.624499 17.5178 0.50805C17.4167 0.461339 17.1277 0.352565 17.0269 0.438201C16.9645 0.453826 16.9328 0.47729 16.9174 0.53968C16.8553 0.632775 16.9099 0.773015 16.9486 0.858869C17.0657 1.10767 17.2294 1.25553 17.3779 1.46578C17.51 1.65224 17.6741 1.86249 17.7678 2.06523C17.9699 2.50104 18.0641 2.98387 18.2514 3.41962C18.3208 3.58349 18.4307 3.76995 18.5318 3.91776C18.6175 4.03508 18.7733 4.1199 18.8204 4.26842C18.9144 4.42412 18.6798 4.93788 18.6255 5.10104C18.4223 5.73947 18.4617 6.62692 18.6956 7.18032L18.7081 7.2095L18.7206 7.23906C18.806 7.44174 18.8974 7.66 19.1246 7.71667C19.1402 7.70121 19.1246 7.70932 19.1556 7.70121C19.2105 7.27287 19.226 6.86037 19.3743 6.52522C19.46 6.31568 19.6311 6.16755 19.7484 5.99649C19.8266 6.04309 19.8266 6.18361 19.8732 6.27659C19.9747 6.51777 20.0837 6.78219 20.2088 7.02407C20.4657 7.52221 20.7546 8.00516 21.082 8.4409C21.1917 8.59655 21.3473 8.76788 21.4876 8.90806C21.5501 8.96234 21.6201 8.9937 21.6671 9.06355H21.6824V9.08707C21.4484 9.00121 21.3001 8.76026 21.1135 8.61958C20.7622 8.35516 20.3415 7.95806 20.0994 7.57703C19.9981 7.35828 19.8886 7.14863 19.7794 6.93098V6.91524C19.7328 6.97741 19.7484 7.03915 19.7251 7.13323C19.6238 7.52221 19.7018 7.96596 19.3509 8.10587C18.9531 8.26974 18.6563 7.84145 18.5318 7.64682C18.1339 7.00082 18.0249 5.91102 18.3055 5.0313C18.3678 4.83657 18.3763 4.60301 18.4851 4.44753C18.4616 4.30696 18.3528 4.26853 18.2899 4.1824C18.1807 4.03519 18.0872 3.8637 18.0018 3.70021C17.8376 3.38086 17.7208 2.99928 17.5961 2.65679C17.5414 2.51693 17.5257 2.37653 17.471 2.24413C17.3778 2.04204 17.2061 1.8393 17.0736 1.66052C16.8941 1.40355 16.3715 0.905525 16.5822 0.399222ZM19.14 1.92439C19.1609 1.94519 19.186 1.96337 19.2121 1.98128L19.2434 2.00273C19.2853 2.03159 19.3258 2.06197 19.3506 2.10334C19.39 2.15811 19.3973 2.21217 19.4445 2.26705C19.4445 2.45416 19.39 2.57856 19.28 2.65608C19.28 2.65608 19.2725 2.66425 19.2648 2.67187C19.2025 2.54715 19.1479 2.42308 19.0851 2.29846C19.0077 2.18969 18.8984 2.1034 18.8354 1.97911H18.8203V1.96348C18.9144 1.94034 19.0077 1.92439 19.14 1.92439Z" fill="#00758F"/>
</svg>
