<svg width="16" height="16" viewBox="0 0 16 16" fill="none" xmlns="http://www.w3.org/2000/svg">
<path d="M11.7261 11.5141C11.8242 10.6974 11.7948 10.5776 12.4031 10.7099L12.5575 10.7234C13.0252 10.7447 13.6371 10.6482 13.9966 10.4812C14.7705 10.1221 15.2292 9.52268 14.4663 9.68006C12.7258 10.0392 12.6062 9.44981 12.6062 9.44981C14.4441 6.72293 15.2123 3.26131 14.5491 2.41393C12.7403 0.102808 9.60947 1.19568 9.55709 1.22393L9.54034 1.22706C9.19647 1.15568 8.81159 1.11306 8.37922 1.10606C7.59159 1.09306 6.99397 1.31256 6.54059 1.65631C6.54059 1.65631 0.955219 -0.644817 1.21509 4.55018C1.27034 5.65531 2.79909 12.9124 4.62259 10.7204C5.28909 9.91893 5.93309 9.24118 5.93309 9.24118C6.25284 9.45356 6.63584 9.56206 7.03734 9.52306L7.06847 9.49656C7.05872 9.59606 7.06297 9.69343 7.08084 9.80868C6.61122 10.3336 6.74922 10.4257 5.81009 10.6189C4.85984 10.8147 5.41809 11.1633 5.78247 11.2544C6.22434 11.3649 7.24647 11.5214 7.93722 10.5547L7.90972 10.6649C8.09397 10.8124 8.08159 11.7246 8.10759 12.3762C8.13372 13.0279 8.17734 13.6361 8.31022 13.9947C8.44309 14.3533 8.59984 15.2767 9.83409 15.0122C10.8656 14.7917 11.6542 14.4736 11.7261 11.5141Z" fill="black"/>
<path d="M9.43219 15.657C8.88632 15.657 8.53082 15.4459 8.31494 15.242C7.98907 14.9345 7.85982 14.5384 7.78257 14.3017L7.74919 14.203C7.59369 13.7832 7.54094 13.1789 7.50969 12.4006C7.50494 12.2837 7.50169 12.1634 7.49807 12.0357C7.49544 11.9424 7.49219 11.8252 7.48744 11.7027C7.29078 11.7965 7.08203 11.8625 6.86719 11.8987C6.48232 11.9645 6.06857 11.9432 5.63719 11.8354C5.33282 11.7592 5.01657 11.6015 4.83632 11.3579C4.31094 11.818 3.80982 11.7556 3.53682 11.6645C3.05519 11.5039 2.62419 11.0525 2.21907 10.2849C1.93044 9.73798 1.65132 9.02548 1.38932 8.16698C0.933066 6.67198 0.643191 5.09735 0.617441 4.58035C0.536441 2.96223 0.972066 1.80498 1.91194 1.1411C3.39457 0.0938516 5.64094 0.709727 6.45994 0.989352C7.01019 0.657727 7.65757 0.496352 8.38907 0.507977C8.78194 0.514352 9.15607 0.548852 9.50357 0.610852C9.86607 0.496852 10.5821 0.333227 11.4017 0.343477C12.9118 0.361477 14.1632 0.949977 15.0203 2.04535C15.6321 2.82685 15.3296 4.46798 15.0949 5.37673C14.7647 6.65498 14.1861 8.01448 13.4753 9.19798C13.6683 9.19935 13.9479 9.17623 14.3454 9.0941C15.1297 8.93223 15.3591 9.35273 15.4213 9.54098C15.6707 10.2962 14.5867 10.867 14.2486 11.024C13.8153 11.2251 13.1089 11.3476 12.5304 11.3211L12.5052 11.3195L12.3532 11.3061L12.3382 11.4329L12.3237 11.5567C12.2848 13.0566 12.0706 14.0065 11.6297 14.6341C11.1676 15.2921 10.5253 15.4765 9.95957 15.5977C9.76657 15.639 9.59119 15.657 9.43219 15.657ZM8.28344 10.1981C8.63582 10.4801 8.66669 11.0107 8.69432 12.0024C8.69782 12.1261 8.70107 12.2432 8.70544 12.3526C8.71869 12.6839 8.74982 13.4595 8.87132 13.7872C8.88844 13.8336 8.90382 13.8806 8.92007 13.9305C9.05544 14.345 9.12332 14.5529 9.70869 14.4277C10.2001 14.3224 10.4527 14.2279 10.6504 13.9464C10.9378 13.5371 11.0986 12.7139 11.1281 11.4995L11.7259 11.514L11.1322 11.4427L11.1497 11.2945C11.2066 10.8057 11.2476 10.4527 11.5742 10.2192C11.8363 10.032 12.1349 10.0501 12.3728 10.093C12.1114 9.89548 12.0392 9.66385 12.0199 9.56885L11.9701 9.32323L12.1102 9.11535C12.9173 7.91785 13.5828 6.4461 13.9363 5.07735C14.2996 3.67098 14.1888 2.9241 14.0781 2.78285C12.6119 0.909477 10.0696 1.68298 9.80407 1.77073L9.75919 1.79498L9.53419 1.83685L9.41894 1.81298C9.10119 1.74698 8.74819 1.71048 8.36982 1.70435C7.77532 1.69435 7.29569 1.83485 6.90244 2.13323L6.62957 2.3401L6.31294 2.20973C5.63644 1.9331 3.64944 1.37698 2.60094 2.1196C2.01894 2.53185 1.75382 3.3396 1.81282 4.52048C1.83232 4.91035 2.09719 6.38623 2.53419 7.8176C3.13807 9.79573 3.68682 10.4529 3.91594 10.5292C3.95594 10.5427 4.05969 10.4621 4.16294 10.3381C4.59346 9.82204 5.03924 9.3189 5.49969 8.82935L5.84594 8.46498L6.26457 8.7431C6.43332 8.85523 6.61944 8.91885 6.81057 8.93085L7.80894 8.07935L7.66432 9.55535C7.66107 9.58848 7.65944 9.6336 7.67244 9.71735L7.71594 9.9971L7.52719 10.2081L7.50544 10.2326L8.05394 10.4857L8.28344 10.1981Z" fill="black"/>
<path d="M14.4665 9.68005C12.7258 10.0392 12.6062 9.4498 12.6062 9.4498C14.4441 6.7228 15.2123 3.26105 14.5493 2.41393C12.7406 0.102928 9.60947 1.1958 9.55722 1.22418L9.54034 1.22718C9.19647 1.1558 8.81159 1.1133 8.37897 1.1063C7.59134 1.09343 6.99397 1.3128 6.54059 1.65655C6.54059 1.65655 0.955091 -0.644447 1.21484 4.55043C1.27009 5.65568 2.79884 12.9128 4.62234 10.7208C5.28884 9.9193 5.93272 9.24155 5.93272 9.24155C6.25259 9.45393 6.63547 9.56243 7.03684 9.52343L7.06809 9.49693C7.05834 9.59643 7.06284 9.6938 7.08059 9.80905C6.61084 10.3339 6.74884 10.4261 5.80972 10.6193C4.85947 10.8151 5.41772 11.1637 5.78222 11.2548C6.22397 11.3653 7.24622 11.5218 7.93684 10.5551L7.90922 10.6653C8.09334 10.8128 8.22259 11.6243 8.20097 12.3599C8.17934 13.0956 8.16472 13.6007 8.30984 13.9952C8.45484 14.3897 8.59934 15.2772 9.83384 15.0127C10.8653 14.7917 11.3998 14.2188 11.4743 13.2633C11.5271 12.5839 11.6465 12.6844 11.6541 12.0771L11.75 11.7896C11.8605 10.8687 11.7675 10.5717 12.4031 10.7098L12.5575 10.7233C13.0252 10.7446 13.6373 10.6481 13.9967 10.4811C14.7705 10.1222 15.2293 9.52268 14.4665 9.68005Z" fill="#336791"/>
<path d="M9.49474 15.2883C8.46574 15.2883 8.13974 14.4735 8.00637 14.1402C7.81112 13.6518 7.76899 11.7566 7.81249 10.2023C7.81314 10.1761 7.81896 10.1503 7.82964 10.1263C7.84031 10.1024 7.85561 10.0808 7.87466 10.0628C7.89372 10.0448 7.91615 10.0307 7.94066 10.0214C7.96517 10.0121 7.99129 10.0077 8.01749 10.0086C8.04367 10.0093 8.06946 10.0152 8.09337 10.0258C8.11728 10.0365 8.13885 10.0518 8.15684 10.0708C8.17484 10.0899 8.1889 10.1123 8.19824 10.1367C8.20757 10.1612 8.21199 10.1873 8.21124 10.2135C8.16112 12.0061 8.23224 13.6306 8.37674 13.9921C8.60224 14.5557 8.94424 15.0487 9.91112 14.8416C10.829 14.6447 11.1727 14.2967 11.3259 13.4091C11.4434 12.728 11.6757 10.7902 11.7044 10.4078C11.7063 10.3817 11.7133 10.3562 11.7251 10.3328C11.7369 10.3094 11.7532 10.2886 11.7731 10.2715C11.7929 10.2544 11.8159 10.2414 11.8408 10.2332C11.8657 10.225 11.892 10.2218 11.9181 10.2238C11.9708 10.2278 12.0198 10.2526 12.0543 10.2926C12.0888 10.3327 12.106 10.3848 12.1021 10.4376C12.0722 10.8357 11.841 12.7697 11.719 13.477C11.5382 14.5253 11.0709 15.0008 9.99474 15.2316C9.81187 15.2707 9.64574 15.2882 9.49474 15.2883ZM3.91524 11.3082C3.8253 11.3079 3.73599 11.2931 3.65074 11.2645C2.98237 11.0415 2.34574 9.95295 1.75849 8.02883C1.31149 6.5642 1.02824 5.03545 1.00337 4.53858C0.929742 3.06558 1.30899 2.02345 2.13087 1.44133C3.75674 0.289326 6.49187 1.38633 6.60749 1.43358C6.65647 1.45358 6.6955 1.49223 6.71599 1.54101C6.73648 1.58979 6.73675 1.64472 6.71674 1.6937C6.69674 1.74268 6.65809 1.78171 6.60931 1.8022C6.56052 1.82269 6.5056 1.82296 6.45662 1.80295C6.43024 1.7922 3.80749 0.741451 2.36062 1.76733C1.65787 2.26558 1.33524 3.19133 1.40162 4.5187C1.42249 4.93733 1.68712 6.42933 2.13987 7.91233C2.66412 9.63008 3.26074 10.714 3.77687 10.8861C3.85787 10.9131 4.10437 10.9952 4.45674 10.5715C4.86766 10.0779 5.29399 9.59743 5.73512 9.1307C5.77203 9.09389 5.82188 9.07298 5.87401 9.07246C5.92614 9.07194 5.9764 9.09184 6.01404 9.12791C6.05168 9.16398 6.0737 9.21335 6.0754 9.26546C6.07709 9.31756 6.05833 9.36826 6.02312 9.4067C6.01712 9.41295 5.41724 10.0401 4.76349 10.8266C4.45387 11.199 4.15712 11.3082 3.91524 11.3082ZM12.5939 9.62758C12.5577 9.62753 12.5222 9.61765 12.4913 9.59901C12.4603 9.58036 12.4349 9.55365 12.418 9.52172C12.401 9.48979 12.393 9.45385 12.3949 9.41774C12.3968 9.38162 12.4084 9.3467 12.4286 9.3167C14.2865 6.55983 14.9386 3.2287 14.3801 2.51495C13.6771 1.6167 12.6845 1.14758 11.4296 1.12045C10.5005 1.10045 9.76199 1.3377 9.64124 1.37908L9.61087 1.39145C9.48949 1.42958 9.39637 1.36308 9.36124 1.28533C9.34121 1.24078 9.33818 1.19045 9.35271 1.14382C9.36724 1.09719 9.39833 1.05749 9.44012 1.0322C9.44587 1.02883 9.46412 1.02108 9.49374 1.0102C9.69887 0.935076 10.4486 0.710076 11.3772 0.720701C12.7657 0.735451 13.9127 1.27083 14.694 2.2692C15.0636 2.74158 15.0645 3.82983 14.6964 5.25508C14.3211 6.7082 13.615 8.26983 12.7592 9.5397C12.721 9.59683 12.658 9.62758 12.5939 9.62758ZM12.6889 10.9038C12.3716 10.9038 12.0872 10.8591 11.917 10.7571C11.742 10.6522 11.7086 10.5097 11.7042 10.4341C11.6565 9.59533 12.1192 9.44933 12.3552 9.3827C12.3224 9.33295 12.2756 9.27445 12.2272 9.21408C12.0896 9.04208 11.9011 8.80658 11.7559 8.45433C11.7331 8.39933 11.6619 8.27145 11.5794 8.12333C11.132 7.32108 10.2011 5.6517 10.7991 4.79683C11.0759 4.4012 11.627 4.24545 12.439 4.33233C12.2001 3.60458 11.0626 1.32808 8.36349 1.28383C7.55174 1.27033 6.88599 1.51995 6.38574 2.02508C5.26574 3.1562 5.30624 5.20283 5.30687 5.22333C5.30756 5.24951 5.30308 5.27557 5.2937 5.30002C5.28432 5.32448 5.27021 5.34684 5.25218 5.36584C5.23416 5.38484 5.21257 5.40011 5.18864 5.41077C5.16471 5.42142 5.13892 5.42726 5.11274 5.42795C5.08656 5.42864 5.0605 5.42417 5.03605 5.41478C5.01159 5.4054 4.98923 5.39129 4.97023 5.37327C4.95122 5.35524 4.93596 5.33365 4.9253 5.30972C4.91465 5.2858 4.90881 5.26001 4.90812 5.23383C4.90562 5.14295 4.86387 2.9952 6.10237 1.74433C6.68199 1.15895 7.44499 0.869951 8.37012 0.885076C10.0969 0.913451 11.2084 1.79133 11.8366 2.5227C12.5215 3.31983 12.8572 4.19908 12.8849 4.49258C12.9055 4.71083 12.7489 4.75445 12.7172 4.76095L12.6452 4.76258C11.8484 4.63495 11.3371 4.72358 11.1257 5.02558C10.6709 5.6757 11.5515 7.25483 11.9275 7.9292C12.0235 8.1012 12.0927 8.22558 12.1245 8.30233C12.248 8.60183 12.4091 8.80308 12.5385 8.96483C12.6524 9.10708 12.751 9.23045 12.7862 9.3752C12.8026 9.40395 13.035 9.7477 14.4139 9.46308C14.7595 9.39183 14.9667 9.4527 15.0301 9.64433C15.1547 10.0212 14.4555 10.4608 14.0684 10.6406C13.7215 10.8018 13.1679 10.9038 12.6889 10.9038ZM12.1019 10.4012C12.1456 10.4453 12.3645 10.5215 12.8177 10.502C13.2207 10.4847 13.6457 10.3971 13.9007 10.2787C14.2269 10.1272 14.4446 9.95783 14.5574 9.8422L14.4949 9.8537C13.6132 10.0357 12.9896 10.0115 12.6414 9.78158C12.6179 9.76614 12.5954 9.74941 12.5739 9.73145C12.5361 9.74633 12.5012 9.75608 12.4764 9.76308C12.2789 9.81845 12.0746 9.87583 12.1019 10.4012ZM6.40662 11.5156C6.18762 11.5156 5.95712 11.4857 5.72174 11.4268C5.47787 11.3658 5.06674 11.1822 5.07299 10.8806C5.08012 10.5422 5.57224 10.4407 5.75749 10.4026C6.42674 10.2647 6.47037 10.2095 6.67949 9.94383C6.74049 9.86645 6.81637 9.77008 6.91987 9.65458C7.07349 9.48258 7.24137 9.39545 7.41887 9.39545C7.54249 9.39545 7.64387 9.43733 7.71087 9.4652C7.92437 9.5537 8.10249 9.7677 8.17574 10.0236C8.24187 10.2545 8.21024 10.4767 8.08699 10.6493C7.68237 11.216 7.10124 11.5156 6.40662 11.5156ZM5.50387 10.8977C5.56399 10.9442 5.68449 11.0063 5.81862 11.0398C6.02249 11.0908 6.22024 11.1167 6.40674 11.1167C6.97499 11.1167 7.43124 10.8815 7.76262 10.4175C7.83174 10.3207 7.81099 10.1978 7.79249 10.1332C7.75374 9.99783 7.65749 9.8747 7.55837 9.83358C7.50462 9.81133 7.45999 9.79433 7.41899 9.79433C7.39699 9.79433 7.32999 9.79433 7.21724 9.92045C7.13943 10.0079 7.06463 10.0981 6.99299 10.1907C6.73249 10.5215 6.61312 10.6337 5.83812 10.7933C5.64899 10.8321 5.55199 10.8716 5.50387 10.8977ZM7.03749 9.9777C6.98988 9.97763 6.94386 9.96052 6.90776 9.92948C6.87165 9.89844 6.84784 9.85551 6.84062 9.80845C6.83561 9.77535 6.83228 9.74201 6.83062 9.70858C6.32262 9.69908 5.83249 9.48108 5.46037 9.09283C4.98987 8.60195 4.77574 7.92183 4.87299 7.22695C4.97862 6.47233 4.93912 5.8062 4.91787 5.44833C4.91199 5.34883 4.90774 5.27695 4.90799 5.2272C4.90837 5.16408 4.90962 4.9967 5.46912 4.71308C5.66812 4.6122 6.06712 4.4362 6.50299 4.39108C7.22512 4.31645 7.70112 4.63808 7.84362 5.29683C8.22824 7.07533 7.87412 7.86195 7.61549 8.43645C7.56737 8.54345 7.52187 8.64445 7.48549 8.74233L7.45337 8.82858C7.31674 9.19495 7.19862 9.51145 7.23487 9.74783C7.23885 9.77371 7.23769 9.80013 7.23145 9.82557C7.22522 9.85101 7.21404 9.87497 7.19854 9.89609C7.18304 9.9172 7.16354 9.93506 7.14114 9.94863C7.11874 9.96221 7.09388 9.97124 7.06799 9.9752L7.03749 9.9777ZM5.30812 5.28245L5.31587 5.42483C5.33787 5.79658 5.37887 6.48833 5.26787 7.28233C5.18774 7.85545 5.36274 8.41483 5.74824 8.81683C6.05287 9.13458 6.45374 9.30995 6.86574 9.30995H6.87424C6.92037 9.11558 6.99699 8.91033 7.07949 8.6892L7.11137 8.60345C7.15249 8.49295 7.20062 8.38595 7.25162 8.2727C7.50049 7.7197 7.81037 7.03133 7.45349 5.3812C7.38287 5.05433 7.21149 4.8652 6.92987 4.80283C6.35137 4.67508 5.48924 5.1102 5.30812 5.28245ZM6.51187 5.19783C6.50187 5.26833 6.64099 5.45658 6.82249 5.4817C7.00362 5.50708 7.15862 5.35983 7.16849 5.28933C7.17837 5.21883 7.03937 5.14108 6.85787 5.11583C6.67637 5.09058 6.52149 5.12733 6.51187 5.19783ZM6.86412 5.55108L6.81324 5.54758C6.70074 5.53195 6.58699 5.46108 6.50912 5.35783C6.48174 5.32158 6.43712 5.25133 6.44599 5.18858C6.45862 5.09658 6.57087 5.04145 6.74599 5.04145C6.78512 5.04145 6.82587 5.04433 6.86687 5.05008C6.96262 5.06333 7.05149 5.09095 7.11712 5.12758C7.23087 5.19108 7.23924 5.26195 7.23412 5.29858C7.22012 5.4002 7.05849 5.55108 6.86412 5.55108ZM6.57799 5.20958C6.58362 5.25308 6.69137 5.39658 6.83162 5.41595L6.86424 5.4182C6.99374 5.4182 7.09049 5.31633 7.10187 5.28295C7.08987 5.2602 7.00662 5.2037 6.84874 5.1817C6.81474 5.1769 6.78045 5.17443 6.74612 5.17433C6.64462 5.17433 6.59074 5.1972 6.57799 5.20958ZM12.0286 5.05395C12.0385 5.12445 11.8995 5.3127 11.7181 5.33795C11.5369 5.3632 11.3817 5.21608 11.3717 5.14558C11.3622 5.07508 11.5012 4.9972 11.6825 4.97208C11.8637 4.9467 12.0186 4.98358 12.0286 5.05395ZM11.6762 5.37395C11.5017 5.37395 11.3511 5.2382 11.3387 5.15008C11.3244 5.04433 11.4985 4.96395 11.6777 4.93908C11.7172 4.93358 11.7564 4.93083 11.794 4.93083C11.9487 4.93083 12.0512 4.9762 12.0615 5.04945C12.0681 5.09683 12.0317 5.16995 11.9691 5.23595C11.9277 5.27933 11.8409 5.35445 11.7225 5.37083L11.6762 5.37395ZM11.7941 4.99733C11.7595 4.99733 11.7238 4.99987 11.6871 5.00495C11.507 5.03008 11.3995 5.10233 11.4047 5.14108C11.4107 5.1837 11.5257 5.30758 11.6764 5.30758L11.7135 5.30495C11.8119 5.29133 11.8857 5.22708 11.921 5.19008C11.9764 5.13195 11.9984 5.0772 11.9957 5.05858C11.9922 5.03383 11.9257 4.99733 11.7941 4.99733ZM12.2897 9.1027C12.2536 9.10272 12.2181 9.09292 12.1872 9.07433C12.1562 9.05575 12.1308 9.02909 12.1138 8.9972C12.0968 8.96532 12.0888 8.92941 12.0906 8.89332C12.0925 8.85723 12.1041 8.82232 12.1242 8.79233C12.549 8.15795 12.4712 7.51108 12.3961 6.88545C12.364 6.61895 12.331 6.34333 12.3395 6.07883C12.3482 5.8067 12.3829 5.5822 12.4162 5.36508C12.4559 5.10783 12.4934 4.86483 12.4779 4.57633C12.4765 4.55018 12.4802 4.52401 12.4889 4.49931C12.4976 4.47461 12.5111 4.45186 12.5286 4.43237C12.5461 4.41289 12.5672 4.39703 12.5909 4.38572C12.6145 4.37441 12.6401 4.36786 12.6662 4.36645C12.6924 4.36504 12.7186 4.36879 12.7433 4.37749C12.768 4.3862 12.7907 4.39968 12.8102 4.41717C12.8496 4.4525 12.8733 4.50201 12.8761 4.55483C12.8939 4.88458 12.8515 5.15958 12.8105 5.4257C12.7789 5.63108 12.7461 5.84345 12.7382 6.09158C12.7306 6.32583 12.7605 6.57458 12.7921 6.83783C12.8721 7.50308 12.9627 8.25708 12.4557 9.0142C12.4375 9.04144 12.4127 9.06375 12.3838 9.07919C12.3548 9.09462 12.3225 9.1027 12.2897 9.1027Z" fill="white"/>
</svg>
