<svg width="16" height="16" viewBox="0 0 16 16" fill="none" xmlns="http://www.w3.org/2000/svg">
<path d="M15.9346 9.01581C16.4945 4.63263 13.399 0.625312 9.02381 0.0654375C4.64862 -0.4945 0.625312 2.601 0.0654375 6.97619C-0.4945 11.3514 2.601 15.3667 6.97619 15.9346C11.3594 16.4945 15.3667 13.399 15.9346 9.01581Z" fill="#FF6C37"/>
<path d="M10.8876 5.13652L7.51218 8.51196L6.5603 7.56008C9.87974 4.24071 10.2077 4.52864 10.8876 5.13652Z" fill="white"/>
<path d="M7.51196 8.5919C7.48796 8.5919 7.47196 8.5839 7.45596 8.5679L6.49614 7.61609C6.48857 7.60887 6.48254 7.60019 6.47841 7.59057C6.47429 7.58095 6.47217 7.57059 6.47217 7.56012C6.47217 7.54966 6.47429 7.5393 6.47841 7.52968C6.48254 7.52006 6.48857 7.51137 6.49614 7.50415C9.87152 4.12872 10.2235 4.44865 10.9353 5.08853C10.9513 5.10453 10.9593 5.12053 10.9593 5.14453C10.9593 5.16853 10.9513 5.18453 10.9353 5.20053L7.55996 8.5679C7.55196 8.5839 7.52796 8.5919 7.51196 8.5919ZM6.67214 7.56009L7.51196 8.39997L10.7674 5.14453C10.1755 4.61665 9.77552 4.45659 6.67214 7.56009Z" fill="#FF6C37"/>
<path d="M8.47987 9.4797L7.56006 8.55982L10.9354 5.18445C11.8393 6.09632 10.4876 7.57601 8.47987 9.4797Z" fill="white"/>
<path d="M8.47985 9.55975C8.45585 9.55975 8.43985 9.55175 8.42391 9.53575L7.50404 8.61588C7.48804 8.59988 7.48804 8.58388 7.48804 8.55988C7.48804 8.53594 7.49604 8.51988 7.51204 8.50394L10.8875 5.1285C10.8947 5.12091 10.9034 5.11487 10.913 5.11075C10.9226 5.10662 10.933 5.10449 10.9435 5.10449C10.9539 5.10449 10.9643 5.10662 10.9739 5.11075C10.9836 5.11487 10.9923 5.12091 10.9995 5.1285C11.1016 5.22301 11.1823 5.3383 11.2361 5.46662C11.2899 5.59494 11.3156 5.7333 11.3114 5.87238C11.2954 6.76025 10.2877 7.888 8.54391 9.53575C8.51991 9.55175 8.49591 9.55975 8.47991 9.55975M7.6721 8.55988C8.18397 9.07981 8.39997 9.28775 8.47991 9.36775C9.82366 8.088 11.1274 6.77625 11.1355 5.87238C11.1435 5.66444 11.0635 5.45644 10.9275 5.2965L7.6721 8.55988Z" fill="#FF6C37"/>
<path d="M6.57618 7.58404L7.25605 8.26391C7.27205 8.27991 7.27205 8.29591 7.25605 8.31191C7.24805 8.31991 7.24805 8.31991 7.24005 8.31991L5.8323 8.62385C5.7603 8.63185 5.6963 8.58385 5.6803 8.51191C5.6723 8.47191 5.6883 8.43191 5.7123 8.40791L6.52818 7.59204C6.54418 7.57604 6.56818 7.56804 6.57618 7.58404Z" fill="white"/>
<path d="M5.80828 8.70392C5.68828 8.70392 5.60034 8.60793 5.60034 8.48799C5.60034 8.43199 5.62434 8.37599 5.66434 8.33599L6.48015 7.52011C6.52815 7.48011 6.59215 7.48011 6.64015 7.52011L7.32003 8.19999C7.36803 8.23999 7.36803 8.31199 7.32003 8.35999C7.30403 8.37599 7.28803 8.38399 7.26403 8.39199L5.85628 8.69592C5.84028 8.69592 5.82428 8.70392 5.80828 8.70392ZM6.55215 7.67211L5.76828 8.45599C5.75228 8.47199 5.74428 8.49599 5.76028 8.51999C5.76828 8.54399 5.79228 8.55193 5.81628 8.54399L7.13603 8.25599L6.55215 7.67211Z" fill="#FF6C37"/>
<path d="M12.6711 3.26493C12.1593 2.76899 11.3354 2.78499 10.8395 3.30493C10.3436 3.8248 10.3596 4.64068 10.8795 5.13655C11.0847 5.33482 11.3498 5.4596 11.6334 5.49144C11.9169 5.52328 12.2031 5.46038 12.4471 5.31255L11.5353 4.40068L12.6711 3.26493Z" fill="white"/>
<path d="M11.7754 5.57645C11.0155 5.57645 10.3997 4.96058 10.3997 4.2007C10.3997 3.44083 11.0155 2.82495 11.7754 2.82495C12.1273 2.82495 12.4713 2.96095 12.7273 3.20889C12.7432 3.22489 12.7512 3.24089 12.7512 3.26489C12.7512 3.28889 12.7432 3.30489 12.7272 3.32089L11.6474 4.40064L12.4953 5.24851C12.5273 5.28051 12.5273 5.32851 12.4953 5.36051L12.4793 5.37651C12.2713 5.50445 12.0233 5.57645 11.7754 5.57645ZM11.7754 2.99301C11.1035 2.99301 10.5596 3.53689 10.5676 4.20876C10.5676 4.88064 11.1115 5.42458 11.7834 5.41658C11.9673 5.41658 12.1513 5.37658 12.3193 5.28858L11.4795 4.4567C11.4635 4.4407 11.4555 4.4247 11.4555 4.4007C11.4555 4.37676 11.4635 4.3607 11.4795 4.34476L12.5513 3.27289C12.3353 3.08895 12.0633 2.99301 11.7754 2.99301Z" fill="#FF6C37"/>
<path d="M12.6952 3.28883L12.6792 3.27283L11.5354 4.40058L12.4392 5.30445C12.5272 5.24845 12.6152 5.18445 12.6872 5.11245C12.8083 4.99376 12.9047 4.85219 12.9708 4.69596C13.0369 4.53973 13.0713 4.37194 13.072 4.20231C13.0728 4.03268 13.0398 3.8646 12.9752 3.70779C12.9105 3.55099 12.8153 3.40858 12.6952 3.28883Z" fill="white"/>
<path d="M12.4471 5.39245C12.4231 5.39245 12.4071 5.38445 12.3911 5.36845L11.4793 4.45657C11.4633 4.44057 11.4553 4.42457 11.4553 4.40057C11.4553 4.37664 11.4633 4.36057 11.4793 4.34464L12.6151 3.20882C12.6223 3.20124 12.631 3.1952 12.6406 3.19107C12.6502 3.18694 12.6606 3.18481 12.6711 3.18481C12.6815 3.18481 12.6919 3.18694 12.7015 3.19107C12.7112 3.1952 12.7199 3.20124 12.7271 3.20882L12.7511 3.22482C13.287 3.7607 13.287 4.62457 12.7591 5.16845C12.6791 5.24845 12.5911 5.32045 12.4951 5.37645C12.4711 5.38445 12.4551 5.39245 12.4471 5.39245ZM11.6473 4.40057L12.4551 5.20845C12.5191 5.16845 12.5831 5.11245 12.6311 5.06451C13.087 4.60857 13.111 3.8647 12.6711 3.38476L11.6473 4.40057Z" fill="#FF6C37"/>
<path d="M11.0233 5.28053C10.931 5.18836 10.8059 5.1366 10.6754 5.1366C10.5449 5.1366 10.4198 5.18836 10.3274 5.28053L7.31201 8.29597L7.81589 8.79991L11.0073 6.00041C11.2153 5.82441 11.2313 5.51247 11.0553 5.30453C11.0393 5.29653 11.0313 5.28853 11.0233 5.28053Z" fill="white"/>
<path d="M7.80801 8.87986C7.78401 8.87986 7.76801 8.87186 7.75201 8.85586L7.24813 8.35192C7.24054 8.3447 7.2345 8.33602 7.23038 8.32639C7.22625 8.31676 7.22412 8.3064 7.22412 8.29592C7.22412 8.28545 7.22625 8.27509 7.23038 8.26546C7.2345 8.25583 7.24054 8.24715 7.24813 8.23992L10.2636 5.22449C10.3165 5.17125 10.3794 5.12901 10.4488 5.10018C10.5181 5.07136 10.5924 5.05652 10.6675 5.05652C10.7426 5.05652 10.8169 5.07136 10.8862 5.10018C10.9556 5.12901 11.0185 5.17125 11.0714 5.22449C11.1247 5.27743 11.1669 5.34037 11.1957 5.40969C11.2246 5.47901 11.2394 5.55335 11.2394 5.62842C11.2394 5.7035 11.2246 5.77784 11.1957 5.84716C11.1669 5.91648 11.1247 5.97942 11.0714 6.03236L11.0474 6.05636L7.85601 8.85586C7.84801 8.87186 7.83201 8.87986 7.80801 8.87986ZM7.42407 8.29592L7.81601 8.68786L10.9514 5.93636C11.1274 5.79236 11.1434 5.52842 10.9994 5.35249C10.8555 5.17649 10.5915 5.16049 10.4156 5.30449C10.4076 5.31249 10.3996 5.32049 10.3836 5.32849L7.42407 8.29592Z" fill="#FF6C37"/>
<path d="M5.00058 11.7273C4.96864 11.7433 4.95264 11.7753 4.96058 11.8073L5.09658 12.3832C5.12858 12.4632 5.08058 12.5592 4.99258 12.5832C4.92864 12.6072 4.85664 12.5832 4.81664 12.5352L3.93677 11.6633L6.80827 8.79187L7.80014 8.80787L8.47202 9.47974C8.31202 9.61568 7.34421 10.5516 5.00058 11.7273Z" fill="white"/>
<path d="M4.93662 12.6632C4.87262 12.6632 4.80862 12.6392 4.76862 12.5912L3.89674 11.7194C3.8808 11.7034 3.8728 11.6874 3.8728 11.6634C3.8728 11.6394 3.8808 11.6234 3.8968 11.6074L6.76824 8.73591C6.78424 8.71991 6.80824 8.71191 6.82424 8.71191L7.81612 8.72791C7.84005 8.72791 7.85612 8.73591 7.87205 8.75191L8.54393 9.42379C8.55993 9.43979 8.56793 9.46379 8.56793 9.48779C8.56793 9.51179 8.55993 9.52779 8.53593 9.54379L8.47993 9.59173C7.63211 10.3356 6.4803 11.0795 5.04855 11.7914L5.18455 12.3593C5.20855 12.4632 5.16055 12.5752 5.06455 12.6312C5.01655 12.6552 4.97655 12.6632 4.93662 12.6632ZM4.05674 11.6635L4.88061 12.4793C4.90461 12.5193 4.95262 12.5353 4.99255 12.5113C5.03255 12.4873 5.04855 12.4393 5.02455 12.3993L4.88862 11.8234C4.87262 11.7514 4.90462 11.6874 4.96862 11.6555C6.3843 10.9436 7.52811 10.2077 8.36799 9.47985L7.77612 8.88798L6.85624 8.87198L4.05674 11.6635Z" fill="#FF6C37"/>
<path d="M3.25676 12.3512L3.94457 11.6633L4.96845 12.6871L3.3367 12.5751C3.2647 12.5671 3.2167 12.5031 3.22476 12.4311C3.22476 12.3991 3.23276 12.3671 3.2567 12.3511" fill="white"/>
<path d="M4.96848 12.7591L3.32873 12.6471C3.20873 12.6391 3.12873 12.5351 3.13679 12.4151C3.14479 12.3671 3.16079 12.3192 3.20079 12.2872L3.88866 11.5993C3.89588 11.5917 3.90457 11.5857 3.91419 11.5816C3.92381 11.5775 3.93417 11.5753 3.94463 11.5753C3.9551 11.5753 3.96546 11.5775 3.97508 11.5816C3.9847 11.5857 3.99338 11.5917 4.0006 11.5993L5.02441 12.6231C5.04841 12.6471 5.05641 12.6791 5.04041 12.7111C5.02441 12.7431 5.00043 12.7591 4.96848 12.7591ZM3.9446 11.7753L3.31273 12.4072C3.28873 12.4231 3.28873 12.4631 3.31273 12.4791C3.32073 12.4871 3.32873 12.4951 3.34473 12.4951L4.76048 12.5911L3.9446 11.7753ZM6.52816 9.15976C6.48016 9.15976 6.44816 9.11976 6.44816 9.07976C6.44816 9.05576 6.45616 9.03976 6.47216 9.02376L7.24804 8.24789C7.25526 8.2403 7.26395 8.23426 7.27357 8.23013C7.2832 8.226 7.29356 8.22388 7.30404 8.22388C7.31451 8.22388 7.32488 8.226 7.3345 8.23013C7.34413 8.23426 7.35282 8.2403 7.36004 8.24789L7.86391 8.75182C7.88791 8.77582 7.89591 8.79982 7.88791 8.83182C7.87991 8.85582 7.85591 8.87982 7.82391 8.88782L6.54416 9.1597L6.52816 9.15976ZM7.30404 8.41589L6.7761 8.94376L7.63998 8.75982L7.30404 8.41589Z" fill="#FF6C37"/>
<path d="M7.79989 8.80783L6.92008 8.99976C6.85608 9.01576 6.79208 8.97577 6.77608 8.91177C6.76808 8.87177 6.77608 8.83177 6.80808 8.79983L7.29602 8.31189L7.79989 8.80783Z" fill="white"/>
<path d="M6.90411 9.07985C6.87778 9.0801 6.85166 9.0751 6.82728 9.06514C6.8029 9.05517 6.78075 9.04045 6.76213 9.02183C6.74351 9.00321 6.72879 8.98106 6.71882 8.95668C6.70886 8.9323 6.70386 8.90618 6.70411 8.87985C6.70411 8.82391 6.72811 8.77591 6.76011 8.73591L7.24805 8.24797C7.25527 8.24039 7.26396 8.23435 7.27358 8.23022C7.28321 8.22609 7.29357 8.22397 7.30405 8.22397C7.31452 8.22397 7.32489 8.22609 7.33451 8.23022C7.34414 8.23435 7.35283 8.24039 7.36005 8.24797L7.86392 8.75191C7.88792 8.77591 7.89592 8.79991 7.88792 8.83191C7.87992 8.85591 7.85592 8.87991 7.82392 8.88791L6.94411 9.07985H6.90411ZM7.30405 8.41597L6.87211 8.84785C6.85611 8.86391 6.85611 8.87991 6.86411 8.89585C6.87211 8.91185 6.88811 8.91985 6.91211 8.91985L7.64799 8.75985L7.30405 8.41597ZM12.703 4.05672C12.687 4.00879 12.631 3.98479 12.583 4.00079C12.5351 4.01679 12.5111 4.07272 12.5271 4.12079C12.5271 4.12872 12.5351 4.13672 12.5351 4.14472C12.5831 4.24072 12.5671 4.36072 12.5031 4.44866C12.4711 4.48866 12.4791 4.54466 12.5111 4.57666C12.5511 4.60866 12.607 4.60066 12.639 4.56066C12.759 4.40866 12.783 4.21672 12.703 4.05672Z" fill="#FF6C37"/>
</svg>
