<svg width="55" height="55" viewBox="0 0 55 55" fill="none" xmlns="http://www.w3.org/2000/svg">
<path d="M22.5959 4.58337C20.8576 4.58337 19.1905 5.2739 17.9614 6.50304C16.7322 7.73219 16.0417 9.39927 16.0417 11.1375V14.9875H25.873C26.7667 14.9875 27.5 16.2938 27.5 17.1875H11.1375C9.39927 17.1875 7.73219 17.8781 6.50305 19.1072C5.2739 20.3364 4.58337 22.0034 4.58337 23.7417V32.4065C4.58337 34.1448 5.2739 35.8118 6.50305 37.041C7.73219 38.2701 9.39927 38.9607 11.1375 38.9607H13.8417V32.819C13.8387 31.9594 14.0054 31.1076 14.3323 30.3126C14.6592 29.5175 15.1398 28.7948 15.7465 28.1859C16.3533 27.577 17.0743 27.0938 17.8683 26.7642C18.6622 26.4345 19.5133 26.2648 20.373 26.2648H32.4042C36.025 26.2648 38.9584 23.3521 38.9584 19.7313V11.1375C38.9584 9.39927 38.2678 7.73219 37.0387 6.50304C35.8096 5.2739 34.1425 4.58337 32.4042 4.58337H22.5959ZM20.9459 8.27296C21.8625 8.27296 22.5959 8.54796 22.5959 9.90004C22.5959 11.2521 21.8625 11.9419 20.9459 11.9419C20.0521 11.9419 19.3188 11.2544 19.3188 9.90233C19.3188 8.55025 20.0521 8.27296 20.9459 8.27296Z" fill="#0288D1"/>
<path d="M41.156 16.0416V22.1833C41.1587 23.0427 40.9918 23.8942 40.6648 24.689C40.3378 25.4838 39.8571 26.2063 39.2504 26.8149C38.6436 27.4236 37.9227 27.9065 37.1289 28.236C36.3352 28.5656 35.4842 28.7352 34.6248 28.7352H22.5958C21.7362 28.7322 20.8844 28.8989 20.0894 29.2257C19.2943 29.5526 18.5716 30.0332 17.9627 30.64C17.3538 31.2468 16.8706 31.9678 16.541 32.7617C16.2113 33.5556 16.0416 34.4068 16.0416 35.2664V43.8602C16.0416 45.5984 16.7322 47.2655 17.9613 48.4947C19.1904 49.7238 20.8575 50.4143 22.5958 50.4143H32.4041C34.142 50.4143 35.8087 49.7241 37.0378 48.4955C38.2669 47.2668 38.9577 45.6003 38.9583 43.8625V40.0125H29.1248C28.231 40.0125 27.5 38.7062 27.5 37.8125H43.8625C45.6007 37.8125 47.2678 37.1219 48.497 35.8928C49.7261 34.6636 50.4166 32.9966 50.4166 31.2583V22.5958C50.4166 20.8575 49.7261 19.1904 48.497 17.9613C47.2678 16.7322 45.6007 16.0416 43.8625 16.0416H41.156ZM19.0666 26.3839L19.0575 26.3931L19.1445 26.3839H19.0666ZM34.0541 43.0581C34.9479 43.0581 35.6812 43.7456 35.6812 45.0977C35.6812 45.3113 35.6391 45.5229 35.5574 45.7203C35.4756 45.9177 35.3557 46.0971 35.2046 46.2482C35.0536 46.3993 34.8742 46.5191 34.6768 46.6009C34.4794 46.6827 34.2678 46.7248 34.0541 46.7248C33.1375 46.7248 32.4041 46.4498 32.4041 45.0977C32.4041 43.7456 33.1375 43.0581 34.0541 43.0581Z" fill="#FDD835"/>
</svg>
