<svg width="24" height="24" viewBox="0 0 24 24" fill="none" xmlns="http://www.w3.org/2000/svg">
<path d="M20.205 16.3919C17.736 19.6809 12.464 18.5709 9.083 18.7299C9.083 18.7299 8.484 18.7639 7.882 18.8629C7.882 18.8629 8.11 18.7659 8.401 18.6649C10.775 17.8439 11.897 17.6789 13.34 16.9379C16.05 15.5499 18.748 12.5249 19.297 9.38295C18.265 12.4049 15.127 15.0059 12.27 16.0619C10.315 16.7839 6.778 17.4859 6.777 17.4859L6.634 17.4099C4.229 16.2399 4.159 11.0299 8.528 9.35095C10.444 8.61495 12.275 9.01895 14.346 8.52595C16.554 8.00095 19.112 6.34595 20.151 4.18195C21.316 7.63995 22.716 13.0479 20.205 16.3919ZM20.247 3.11195C19.9678 3.78175 19.6103 4.41615 19.182 5.00195C18.2512 4.0425 17.1372 3.27981 15.9061 2.75915C14.6749 2.23848 13.3517 1.97044 12.015 1.97095C6.492 1.97095 2 6.46295 2 11.9849C1.99918 13.3624 2.2835 14.7251 2.83509 15.9873C3.38668 17.2495 4.19358 18.3839 5.205 19.3189L5.425 19.5129C5.26465 19.3523 5.17464 19.1346 5.17479 18.9076C5.17493 18.6807 5.2652 18.4631 5.42575 18.3026C5.58631 18.1422 5.804 18.0521 6.03096 18.0522C6.25793 18.0522 6.47558 18.1424 6.63607 18.3029C6.79656 18.4634 6.88674 18.681 6.88679 18.908C6.88683 19.135 6.79674 19.3526 6.63632 19.5132C6.4759 19.6738 6.25828 19.764 6.03132 19.7642C5.80435 19.7643 5.58662 19.6743 5.426 19.5139L5.575 19.6459C7.37541 21.1681 9.65739 22.0022 12.015 21.9999C17.293 21.9999 21.628 17.8919 21.999 12.7079C22.273 10.1689 21.523 6.94495 20.247 3.11195Z" fill="#14AE5C"/>
</svg>
