<svg width="14" height="16" viewBox="0 0 14 16" fill="none" xmlns="http://www.w3.org/2000/svg">
<path d="M7 0L2.52437 2.55388L2.53312 4.56082L7 2.01218L12.25 5.00816L14 6.00683V3.99377L7 0ZM6.2125 13.5147L1.75 10.9687V5.01253L1.74825 5.01166L1.73862 3.0021L0 3.99377V11.9822L4.46688 14.5308L6.2125 13.5147ZM12.25 10.9687V5.91421L14 6.91287V11.9822L7 15.9768L5.25612 14.9817L7 13.9664V13.9638L12.25 10.9687Z" fill="url(#paint0_linear_58_5)"/>
<path d="M2.5376 5.91782V10.5118L7.0001 13.0587V8.46384L2.5376 5.91782ZM7.0001 2.91833L2.93397 5.23806L7.39735 7.78496L11.4626 5.46436L7.0001 2.91833Z" fill="black"/>
<defs>
<linearGradient id="paint0_linear_58_5" x1="700" y1="126.153" x2="697.356" y2="1491.33" gradientUnits="userSpaceOnUse">
<stop stop-color="#0096FF"/>
<stop offset="1" stop-color="#FF1E56"/>
</linearGradient>
</defs>
</svg>
