<svg width="41" height="32" viewBox="0 0 41 32" fill="none" xmlns="http://www.w3.org/2000/svg">
<path fill-rule="evenodd" clip-rule="evenodd" d="M8.47727 0.00634766C7.85018 0.00634766 7.27805 0.186923 6.84768 0.496177C6.48976 0.753377 6.23728 1.1161 6.15846 1.53017H5.22061C3.9254 1.53017 2.86731 2.5563 2.86731 3.82969V9.0852C2.86731 10.3586 3.9254 11.3839 5.22061 11.3839H34.9466C36.2418 11.3839 37.2999 10.3578 37.2999 9.0852V3.82969C37.2999 2.5563 36.2418 1.53017 34.9466 1.53017H14.2423C14.1635 1.11626 13.9109 0.753534 13.553 0.496177C13.1226 0.186923 12.5505 0.00634766 11.9234 0.00634766H8.47719" fill="#CCCCCC"/>
<path fill-rule="evenodd" clip-rule="evenodd" d="M2.86465 4.81726C1.29531 4.81726 -0.132598 6.06294 0.0115157 7.64071L1.92201 28.5419C2.05848 30.0355 3.20336 31.294 4.77278 31.294H34.9666C36.5363 31.294 37.652 30.0301 37.8173 28.5493L40.1509 7.64811C40.2393 6.85667 39.9038 6.13114 39.3656 5.62713C38.8275 5.12321 38.0853 4.81726 37.3008 4.81726H2.86552" fill="#6997C7"/>
<path opacity="0.05" d="M2.86475 4.81641C1.29541 4.81641 -0.134073 6.06382 0.0100409 7.64159L0.937802 17.7831L1.91974 28.5428C2.05622 30.0364 3.20259 31.2942 4.77209 31.2942H34.9659C36.5356 31.2942 37.6505 30.031 37.8159 28.5502L39.0192 17.7834L40.1513 7.64899C40.2397 6.85755 39.9044 6.13013 39.3662 5.62604C38.8281 5.12212 38.086 4.81641 37.3014 4.81641H2.8653" fill="url(#paint0_linear_39_93)"/>
<path opacity="0.764" fill-rule="evenodd" clip-rule="evenodd" d="M8.471 0C7.84391 0 7.28108 0.189238 6.85094 0.498492C6.49302 0.755692 6.2444 1.12306 6.16558 1.53698H5.21033C3.81825 1.53698 2.8634 2.5427 2.8634 3.95155V4.26309C2.8634 2.98969 3.91512 1.95806 5.21033 1.95806H6.33536C6.41411 1.54414 6.49286 1.19756 6.8511 0.940362C7.28147 0.631108 7.84407 0.44187 8.47116 0.44187H11.9189C12.546 0.44187 13.1293 0.631108 13.5596 0.940362C13.9176 1.19756 14.0137 1.54422 14.0927 1.95806H34.9522C36.2474 1.95806 37.2991 2.86015 37.2991 4.13355V3.82201C37.2991 2.54861 36.2474 1.53745 34.9522 1.53745H14.2447C14.1659 1.12354 13.9172 0.756164 13.5593 0.498964C13.1289 0.18971 12.5456 0.000472545 11.9185 0.000472545L8.471 0Z" fill="white"/>
<path opacity="0.4" fill-rule="evenodd" clip-rule="evenodd" d="M2.86387 4.81636C1.29453 4.81636 -0.132593 6.06377 0.0115208 7.64154L0.0434935 7.98608C0.279745 6.73111 1.51865 5.81547 2.86379 5.81547H37.2999C38.0847 5.81547 38.8265 6.12118 39.3647 6.62511C39.7377 6.97437 40.0131 7.429 40.1178 7.9393L40.1498 7.64887C40.2382 6.85742 39.903 6.12992 39.3647 5.62592C38.8266 5.12199 38.0849 4.81628 37.2999 4.81628H2.86379" fill="white"/>
<path opacity="0.25" d="M10.2374 8.21289C9.49613 8.21289 8.89392 8.81273 8.89392 9.55401V11.607L10.0831 12.7962H8.89707V26.5571C8.89707 27.2983 9.49943 27.9006 10.2406 27.9006H10.2407L13.6349 31.2947H34.9668C36.5366 31.2947 37.6514 30.0316 37.8168 28.5507L39.0202 17.7839L39.1245 16.8506L30.895 8.62113C30.6514 8.36937 30.3098 8.21289 29.9311 8.21289H10.2411H10.2385" fill="black"/>
<path d="M10.2374 8.21289C9.49613 8.21289 8.89392 8.81266 8.89392 9.55402V11.607H31.2717V9.55402C31.2717 8.8125 30.6722 8.21289 29.9306 8.21289H10.2406H10.238M24.1099 9.10521C24.6033 9.10521 25.0073 9.50913 25.0073 10.0027C25.0073 10.4963 24.6032 10.895 24.1099 10.895C23.6165 10.895 23.2176 10.4963 23.2176 10.0027C23.2176 9.50905 23.6164 9.10521 24.1099 9.10521ZM26.5724 9.10521C27.0658 9.10521 27.4673 9.50913 27.4673 10.0027C27.4673 10.4963 27.0658 10.895 26.5724 10.895C26.079 10.895 25.6801 10.4963 25.6801 10.0027C25.6801 9.50905 26.079 9.10521 26.5724 9.10521ZM29.0326 9.10521C29.526 9.10521 29.9275 9.50913 29.9275 10.0027C29.9275 10.4963 29.526 10.895 29.0326 10.895C28.5392 10.895 28.1377 10.4963 28.1377 10.0027C28.1377 9.50905 28.5392 9.10521 29.0326 9.10521ZM8.89605 12.7957V26.5566C8.89605 27.2979 9.49841 27.9001 10.2395 27.9001H29.9272C30.6687 27.9001 31.2683 27.2975 31.2683 26.5566V12.7957H8.89605ZM19.8692 15.127H20.1786H21.3678H21.899L21.7572 15.6377L19.2143 24.9192L19.1344 25.2184H18.8249H17.6358H17.1045L17.2464 24.7078L19.7892 15.4262L19.8692 15.127ZM16.5913 17.0638V17.7318V18.8227V19.0754L16.3644 19.1863L14.2286 20.2385L16.3485 21.1669L16.5909 21.2727V21.5383V22.624V23.2556L16.0158 22.99L11.6935 21.0015L11.4588 20.8933V20.6353V19.9854V19.7404L11.6755 19.6269L15.9978 17.3729L16.5909 17.0634M23.5722 17.0634L24.1653 17.3729L28.4876 19.6269L28.7043 19.7404V19.9854V20.6353V20.8933L28.4696 21.0015L24.1473 22.99L23.5722 23.2556V22.624V21.5383V21.2727L23.8146 21.1669L25.9345 20.2385L23.7987 19.1863L23.5718 19.0754V18.8227V17.7318V17.0638" fill="white"/>
<defs>
<linearGradient id="paint0_linear_39_93" x1="-0.077372" y1="5.0755" x2="-0.077372" y2="31.1813" gradientUnits="userSpaceOnUse">
<stop stop-color="#6A6A6A"/>
<stop offset="0.47"/>
<stop offset="0.494" stop-color="white"/>
<stop offset="0.901" stop-color="white"/>
<stop offset="0.955"/>
<stop offset="1"/>
</linearGradient>
</defs>
</svg>
